<?xml version="1.0" encoding="UTF-8"?>
<svg id="Layer_2" data-name="Layer 2" xmlns="http://www.w3.org/2000/svg" viewBox="0 0 284.61 83.52">
  <defs>
    <style>
      .cls-1 {
        fill-rule: evenodd;
      }

      .cls-1, .cls-2 {
        fill: #fffaef;
      }
    </style>
  </defs>
  <g id="Layer_1-2" data-name="Layer 1">
    <g>
      <path class="cls-2" d="M101.41,8.1c-1.37-.99-3.12-1.49-5.25-1.49-.86,0-1.71.09-2.55.26-.84.17-1.58.46-2.22.86-.65.4-1.17.94-1.55,1.62-.39.68-.58,1.52-.58,2.53,0,.95.28,1.72.84,2.31.56.59,1.31,1.07,2.25,1.45.94.37,1.99.68,3.17.93,1.18.25,2.38.51,3.61.8,1.22.29,2.43.63,3.61,1.02,1.18.39,2.24.91,3.17,1.58.94.66,1.68,1.5,2.25,2.5.56,1.01.84,2.27.84,3.8,0,1.64-.37,3.05-1.1,4.21-.73,1.17-1.68,2.12-2.83,2.85-1.15.73-2.44,1.27-3.87,1.6s-2.84.5-4.25.5c-1.73,0-3.36-.22-4.9-.65-1.54-.43-2.89-1.09-4.06-1.96-1.17-.88-2.09-2-2.76-3.37-.68-1.37-1.02-2.99-1.02-4.86h3.89c0,1.3.25,2.41.76,3.35.5.94,1.17,1.71,1.99,2.31.82.6,1.78,1.05,2.87,1.34,1.09.29,2.22.43,3.37.43.92,0,1.85-.09,2.79-.26.94-.17,1.78-.47,2.53-.89.75-.42,1.35-.99,1.81-1.71.46-.72.69-1.64.69-2.76,0-1.06-.28-1.93-.84-2.59-.56-.66-1.31-1.2-2.25-1.62-.94-.42-1.99-.76-3.17-1.01-1.18-.26-2.38-.53-3.61-.8-1.22-.27-2.43-.59-3.61-.95-1.18-.36-2.24-.83-3.17-1.43-.94-.59-1.68-1.35-2.25-2.29-.56-.94-.84-2.11-.84-3.52,0-1.55.32-2.9.95-4.04.63-1.14,1.48-2.07,2.53-2.81,1.05-.73,2.25-1.28,3.58-1.64,1.34-.36,2.71-.54,4.12-.54,1.58,0,3.05.19,4.41.56,1.35.37,2.54.96,3.56,1.77,1.02.81,1.83,1.82,2.42,3.04.59,1.22.91,2.69.97,4.38h-3.89c-.23-2.22-1.03-3.82-2.4-4.82Z"/>
      <path class="cls-2" d="M129.85,34.73l-4.54-17.75h-.09l-4.49,17.75h-3.97l-7.17-22.33h4.06l5.05,18.27h.09l4.49-18.27h4.02l4.66,18.27h.09l5.01-18.27h3.8l-7.13,22.33h-3.89Z"/>
      <path class="cls-2" d="M142.85,8.38V3.89h3.67v4.49h-3.67ZM146.52,12.4v22.33h-3.67V12.4h3.67Z"/>
      <path class="cls-2" d="M153.3,29.74c.35.56.8,1.01,1.36,1.34.56.33,1.19.57,1.9.71.71.14,1.43.22,2.18.22.58,0,1.18-.04,1.81-.13.63-.09,1.22-.24,1.75-.48.53-.23.97-.57,1.32-1.02.35-.45.52-1.02.52-1.71,0-.95-.36-1.67-1.08-2.16-.72-.49-1.62-.89-2.7-1.19-1.08-.3-2.25-.58-3.52-.82-1.27-.24-2.44-.59-3.52-1.04-1.08-.45-1.98-1.07-2.7-1.88-.72-.81-1.08-1.93-1.08-3.37,0-1.12.25-2.09.76-2.89.5-.81,1.15-1.46,1.94-1.97.79-.5,1.68-.88,2.68-1.12.99-.24,1.98-.37,2.96-.37,1.27,0,2.43.11,3.5.32,1.06.22,2.01.59,2.83,1.12.82.53,1.48,1.25,1.97,2.16.49.91.78,2.04.86,3.39h-3.67c-.06-.72-.24-1.32-.56-1.79s-.72-.86-1.21-1.14c-.49-.29-1.03-.5-1.62-.63-.59-.13-1.19-.19-1.79-.19-.55,0-1.1.04-1.66.13s-1.07.24-1.53.45c-.46.22-.84.5-1.12.86-.29.36-.43.83-.43,1.4,0,.63.22,1.16.67,1.58.45.42,1.02.76,1.71,1.04.69.27,1.47.5,2.33.69.86.19,1.73.38,2.59.58.92.2,1.82.45,2.7.73.88.29,1.66.67,2.33,1.14.68.48,1.22,1.07,1.64,1.79.42.72.63,1.61.63,2.68,0,1.35-.28,2.48-.84,3.37s-1.3,1.61-2.2,2.16c-.91.55-1.93.93-3.07,1.15-1.14.22-2.27.32-3.39.32-1.24,0-2.42-.13-3.54-.39s-2.12-.68-2.98-1.27c-.86-.59-1.55-1.37-2.07-2.33-.52-.96-.81-2.14-.86-3.52h3.67c.03.81.22,1.49.56,2.05Z"/>
      <path class="cls-2" d="M173.17,29.74c.35.56.8,1.01,1.36,1.34.56.33,1.19.57,1.9.71.71.14,1.43.22,2.18.22.58,0,1.18-.04,1.81-.13.63-.09,1.22-.24,1.75-.48.53-.23.97-.57,1.32-1.02.35-.45.52-1.02.52-1.71,0-.95-.36-1.67-1.08-2.16-.72-.49-1.62-.89-2.7-1.19-1.08-.3-2.25-.58-3.52-.82-1.27-.24-2.44-.59-3.52-1.04-1.08-.45-1.98-1.07-2.7-1.88-.72-.81-1.08-1.93-1.08-3.37,0-1.12.25-2.09.76-2.89.5-.81,1.15-1.46,1.94-1.97.79-.5,1.68-.88,2.68-1.12.99-.24,1.98-.37,2.96-.37,1.27,0,2.43.11,3.5.32,1.06.22,2.01.59,2.83,1.12.82.53,1.48,1.25,1.97,2.16.49.91.78,2.04.86,3.39h-3.67c-.06-.72-.24-1.32-.56-1.79s-.72-.86-1.21-1.14c-.49-.29-1.03-.5-1.62-.63-.59-.13-1.19-.19-1.79-.19-.55,0-1.1.04-1.66.13s-1.07.24-1.53.45c-.46.22-.84.5-1.12.86-.29.36-.43.83-.43,1.4,0,.63.22,1.16.67,1.58.45.42,1.02.76,1.71,1.04.69.27,1.47.5,2.33.69.86.19,1.73.38,2.59.58.92.2,1.82.45,2.7.73.88.29,1.66.67,2.33,1.14.68.48,1.22,1.07,1.64,1.79.42.72.63,1.61.63,2.68,0,1.35-.28,2.48-.84,3.37s-1.3,1.61-2.2,2.16c-.91.55-1.93.93-3.07,1.15-1.14.22-2.27.32-3.39.32-1.24,0-2.42-.13-3.54-.39s-2.12-.68-2.98-1.27c-.86-.59-1.55-1.37-2.07-2.33-.52-.96-.81-2.14-.86-3.52h3.67c.03.81.22,1.49.56,2.05Z"/>
      <path class="cls-2" d="M92.36,44.86v11.83h12.48v-11.83h6.78v30.84h-6.78v-13.3h-12.48v13.3h-6.78v-30.84h6.78Z"/>
      <path class="cls-2" d="M115.34,59.7c.55-1.45,1.32-2.69,2.33-3.71,1.01-1.02,2.22-1.81,3.63-2.38,1.41-.56,2.99-.84,4.75-.84s3.35.28,4.77.84,2.64,1.35,3.65,2.38c1.01,1.02,1.79,2.26,2.33,3.71.55,1.45.82,3.07.82,4.86s-.27,3.4-.82,4.84c-.55,1.44-1.32,2.67-2.33,3.69-1.01,1.02-2.22,1.81-3.65,2.35-1.43.55-3.02.82-4.77.82s-3.34-.27-4.75-.82c-1.41-.55-2.62-1.33-3.63-2.35-1.01-1.02-1.79-2.25-2.33-3.69-.55-1.44-.82-3.05-.82-4.84s.27-3.4.82-4.86ZM120.91,67.17c.17.85.47,1.61.89,2.29.42.68.97,1.22,1.66,1.62.69.4,1.55.6,2.59.6s1.91-.2,2.61-.6c.71-.4,1.27-.94,1.68-1.62.42-.68.71-1.44.89-2.29.17-.85.26-1.72.26-2.61s-.09-1.77-.26-2.63-.47-1.63-.89-2.29c-.42-.66-.98-1.2-1.68-1.62-.71-.42-1.58-.63-2.61-.63s-1.9.21-2.59.63c-.69.42-1.25.96-1.66,1.62-.42.66-.71,1.43-.89,2.29s-.26,1.74-.26,2.63.09,1.76.26,2.61Z"/>
      <path class="cls-2" d="M145.03,70.15c.27.48.63.86,1.06,1.17.43.3.93.53,1.49.67s1.14.22,1.75.22c.43,0,.89-.05,1.36-.15.48-.1.91-.26,1.3-.48.39-.22.71-.5.97-.86.26-.36.39-.81.39-1.36,0-.92-.61-1.61-1.84-2.07-1.22-.46-2.93-.92-5.12-1.38-.89-.2-1.76-.44-2.61-.71-.85-.27-1.61-.63-2.27-1.08-.66-.45-1.2-1.01-1.6-1.68-.4-.68-.6-1.5-.6-2.48,0-1.44.28-2.62.84-3.54.56-.92,1.3-1.65,2.22-2.18.92-.53,1.96-.91,3.11-1.12,1.15-.22,2.33-.32,3.54-.32s2.38.12,3.52.35c1.14.23,2.15.62,3.04,1.17.89.55,1.63,1.27,2.22,2.18.59.91.94,2.05,1.06,3.43h-5.83c-.09-1.18-.53-1.98-1.34-2.4-.81-.42-1.76-.63-2.85-.63-.35,0-.72.02-1.12.06-.4.04-.77.14-1.1.28-.33.14-.61.35-.84.63-.23.27-.35.64-.35,1.1,0,.55.2.99.6,1.34.4.35.93.63,1.58.84s1.39.41,2.22.58c.83.17,1.68.36,2.55.56.89.2,1.76.45,2.61.73.85.29,1.6.67,2.27,1.14.66.48,1.19,1.07,1.6,1.77.4.71.6,1.58.6,2.61,0,1.47-.3,2.7-.89,3.69-.59.99-1.36,1.79-2.31,2.4-.95.6-2.04,1.03-3.26,1.27-1.22.24-2.47.37-3.74.37s-2.56-.13-3.8-.39c-1.24-.26-2.34-.69-3.3-1.3-.96-.6-1.76-1.4-2.38-2.4-.62-.99-.96-2.24-1.02-3.74h5.83c0,.66.14,1.23.41,1.71Z"/>
      <path class="cls-2" d="M167.17,53.37v2.85h.09c.75-1.21,1.7-2.09,2.85-2.63,1.15-.55,2.42-.82,3.8-.82,1.76,0,3.27.33,4.54.99,1.27.66,2.32,1.54,3.15,2.63.83,1.09,1.45,2.37,1.86,3.82.4,1.45.6,2.97.6,4.56,0,1.5-.2,2.94-.6,4.32-.4,1.38-1.02,2.61-1.84,3.67-.82,1.07-1.84,1.92-3.07,2.55-1.22.63-2.66.95-4.3.95-1.38,0-2.66-.28-3.82-.84s-2.12-1.39-2.87-2.48h-.09v10.58h-6.13v-30.15h5.83ZM175.14,71.08c.68-.4,1.22-.93,1.64-1.58.42-.65.71-1.4.89-2.27.17-.86.26-1.74.26-2.63s-.09-1.77-.28-2.63c-.19-.86-.5-1.63-.93-2.31-.43-.68-.99-1.22-1.66-1.64-.68-.42-1.5-.63-2.48-.63s-1.85.21-2.53.63c-.68.42-1.22.96-1.64,1.62-.42.66-.71,1.43-.89,2.29s-.26,1.76-.26,2.68.09,1.77.28,2.63c.19.86.49,1.62.91,2.27.42.65.97,1.17,1.66,1.58.69.4,1.53.6,2.51.6s1.85-.2,2.53-.6Z"/>
      <path class="cls-2" d="M186.17,49.92v-5.05h6.13v5.05h-6.13ZM192.3,53.37v22.33h-6.13v-22.33h6.13Z"/>
      <path class="cls-2" d="M207.68,53.37v4.1h-4.49v11.06c0,1.04.17,1.73.52,2.07.35.35,1.04.52,2.07.52.35,0,.68-.01.99-.04.32-.03.62-.07.91-.13v4.75c-.52.09-1.09.14-1.73.17-.63.03-1.25.04-1.86.04-.95,0-1.85-.06-2.7-.19-.85-.13-1.6-.38-2.25-.76-.65-.37-1.16-.91-1.53-1.6-.37-.69-.56-1.6-.56-2.72v-13.17h-3.71v-4.1h3.71v-6.69h6.13v6.69h4.49Z"/>
      <path class="cls-2" d="M208.63,60.24c.09-1.44.45-2.63,1.08-3.58.63-.95,1.44-1.71,2.42-2.29.98-.58,2.08-.99,3.3-1.23,1.22-.24,2.45-.37,3.69-.37,1.12,0,2.26.08,3.41.24,1.15.16,2.2.47,3.15.93.95.46,1.73,1.1,2.33,1.92s.91,1.91.91,3.26v11.62c0,1.01.06,1.97.17,2.89.11.92.32,1.61.6,2.07h-6.22c-.12-.35-.21-.7-.28-1.06-.07-.36-.12-.73-.15-1.1-.98,1.01-2.13,1.71-3.46,2.12-1.32.4-2.68.6-4.06.6-1.07,0-2.06-.13-2.98-.39-.92-.26-1.73-.66-2.42-1.21-.69-.55-1.23-1.24-1.62-2.07-.39-.83-.58-1.83-.58-2.98,0-1.27.22-2.31.67-3.13.45-.82,1.02-1.48,1.73-1.96.71-.49,1.51-.86,2.42-1.1.91-.24,1.82-.44,2.74-.58.92-.14,1.83-.26,2.72-.35s1.68-.22,2.38-.39c.69-.17,1.24-.42,1.64-.76.4-.33.59-.81.56-1.45,0-.66-.11-1.19-.32-1.58-.22-.39-.5-.69-.86-.91-.36-.22-.78-.36-1.25-.43-.48-.07-.99-.11-1.53-.11-1.21,0-2.16.26-2.85.78-.69.52-1.09,1.38-1.21,2.59h-6.13ZM222.8,64.78c-.26.23-.58.41-.97.54-.39.13-.81.24-1.25.32-.45.09-.91.16-1.4.22-.49.06-.98.13-1.47.22-.46.09-.91.2-1.36.35-.45.14-.84.34-1.17.58-.33.25-.6.55-.8.93-.2.37-.3.85-.3,1.43s.1,1.01.3,1.38c.2.38.48.67.82.89.35.22.75.37,1.21.45.46.09.94.13,1.43.13,1.21,0,2.15-.2,2.81-.6.66-.4,1.15-.89,1.47-1.45s.51-1.13.58-1.71c.07-.58.11-1.04.11-1.38v-2.29Z"/>
      <path class="cls-2" d="M238.26,44.86v30.84h-6.13v-30.84h6.13Z"/>
      <path class="cls-2" d="M241.54,49.92v-5.05h6.13v5.05h-6.13ZM247.68,53.37v22.33h-6.13v-22.33h6.13Z"/>
      <path class="cls-2" d="M263.05,53.37v4.1h-4.49v11.06c0,1.04.17,1.73.52,2.07.35.35,1.04.52,2.07.52.35,0,.68-.01.99-.04.32-.03.62-.07.91-.13v4.75c-.52.09-1.09.14-1.73.17-.63.03-1.25.04-1.86.04-.95,0-1.85-.06-2.7-.19-.85-.13-1.6-.38-2.25-.76-.65-.37-1.16-.91-1.53-1.6-.37-.69-.56-1.6-.56-2.72v-13.17h-3.71v-4.1h3.71v-6.69h6.13v6.69h4.49Z"/>
      <path class="cls-2" d="M272.51,82.35c-1.18.78-2.82,1.17-4.92,1.17-.63,0-1.26-.02-1.88-.06-.62-.04-1.25-.09-1.88-.15v-5.05c.58.06,1.17.11,1.77.17.6.06,1.21.07,1.81.04.81-.09,1.4-.4,1.79-.95.39-.55.58-1.15.58-1.81,0-.49-.09-.95-.26-1.38l-7.82-20.95h6.52l5.05,15.29h.09l4.88-15.29h6.35l-9.33,25.09c-.66,1.81-1.58,3.11-2.76,3.89Z"/>
    </g>
    <path class="cls-1" d="M67.33,26.94c-15.75,10.5-24.7,29.29-58.59,32.9,33.38,7.05,44.3-6.78,58.59-19.18v36.48H0v-23.16c12.92-13.99,22.35-31.71,59.7-32.43C23.26,15.37,10.97,24.92,0,37.5V0h67.33v26.94Z"/>
  </g>
</svg>