<?xml version="1.0" encoding="UTF-8"?>
<svg id="Layer_2" data-name="Layer 2" xmlns="http://www.w3.org/2000/svg" viewBox="0 0 399.4152586929 94.2208571596">
  <defs>
    <style>
      .cls-1, .cls-2 {
        fill: #0f2347;
      }

      .cls-2 {
        fill-rule: evenodd;
      }
    </style>
  </defs>
  <g id="Layer_1-2" data-name="Layer 1">
    <g>
      <g>
        <path class="cls-1" d="M30.6826872401,0v94.2208571596h85.9320606077V0H30.6826872401ZM109.943414093,86.3405102736H37.609778823V7.9984586089h72.33363527v78.3420516647Z"/>
        <path class="cls-2" d="M99.3316102315,32.4391769621C36.6032077962,38.7214544314,59.4688058365,88.0919073038,0,88.1942905812c53.3536061599-17.4435385209,29.7509474619-61.8536452548,99.3316102315-55.7551136191Z"/>
        <path class="cls-2" d="M154.2960465817,17.0518111987c-62.7284024354,6.2825742324-39.8625570924,55.6532249469-99.3311156263,55.7551630796,53.3531115547-17.4430439157,29.7507001593-61.8532001101,99.3311156263-55.7551630796Z"/>
      </g>
      <g>
        <path class="cls-1" d="M139.1467889588,34.5706353439c-.8885829522,0-1.612774116.260582667-2.1727706038.7821422259-.5603907127.521165334-.840093288,1.1298485985-.840093288,1.8248671188,0,.7147297659.2172179266,1.2993653107.6518508924,1.7527239598.4344358533.4541470989.9798460194.8645352325,1.6368218356,1.2311644009.6561873664.3674176182,1.3614557344.7198546897,2.1148195417,1.0577054395.7531666948.3378507498,1.4578437255.7529695824,2.1148195417,1.2457507227.6563844789.4923869154,1.2021888699,1.0912145571,1.6368218356,1.7960887002.4344358533.705268368.6518508924,1.6076491921.6518508924,2.708719372,0,.965851035-.1839059216,1.8493090633-.5505350899,2.6507683099-.3670233933.8014592466-.8885829522,1.4874105939-1.5644815642,2.0566713671-.6760957245.5700492231-1.48228567,1.0044850764-2.4189640615,1.3037017848-.9368755039.2992167084-1.9843310957.449022175-3.1431552253.449022175-1.0429220053,0-1.9750668103-.1111714253-2.7956459651-.3331200508-.8211704922-.2215544007-1.4440458535-.4971176143-1.868626084-.8255069662.1927759821-.6757014996.3571677705-1.293846162.4925840278-1.8540397623.13482492-.5601936003.2507270442-1.1684826399.3475092601-1.8252613437h.5505350899c.0768738579.4249744554.2217515131.8255069662.4344358533,1.2023859823.2122901152.3764847912.4825312926.709604842.8113148694.9993601525.327995127.2897553105.7241911638.5168288599,1.1876025481.6808264234.4636084968.1643917884.9851680557.2463905701,1.5644815642.2463905701,1.1588241295,0,2.0135037393-.2897553105,2.5638417167-.8692659315.5505350899-.579510621.8257040787-1.2745291413.8257040787-2.0858440106,0-.7336525617-.2126843402-1.3324802034-.6374616831-1.7960887002-.4249744554-.4636084968-.9559954122-.8736024055-1.5932599828-1.2311644009-.6372645706-.3571677705-1.3326773158-.7048741431-2.0858440106-1.0431191178-.7531666948-.3374565249-1.44857944-.7482388834-2.0858440107-1.2311644009-.6374616831-.4825312926-1.1688768648-1.0766282353-1.5934570953-1.7815023784-.4249744554-.7048741431-.6372645706-1.608043417-.6372645706-2.708719372,0-1.0040908515.1783867728-1.8926738037.5359487682-2.6653546316.3571677705-.7722866031.8351654766-1.419603909,1.4339931183-1.9411634679.5984334168-.5215595589,1.289115463-.9169671459,2.0714548014-1.1877996606.7821422259-.2700440649,1.6078463046-.4056574347,2.4769151236-.4056574347,1.0429220053,0,1.9553555647.1261519719,2.737694903.3768790161.7821422259.2511212691,1.4529159141.5988276417,2.0133066268,1.0427248929-.1736560738.444685701-.3236586529.8739966304-.449022175,1.289115463-.125757747.4155130575-.2850246115.9418033153-.4779977061,1.5788707735h-.4344358533c-.6183417748-1.6604753303-1.7866273023-2.4911072204-3.5054479196-2.4911072204Z"/>
        <path class="cls-1" d="M159.1943084208,42.2331849631c-.4444885885,1.226433702-.8935107636,2.4769151236-1.3472636376,3.7514442649-.4539499864,1.2749233662-.8935107636,2.5305297117-1.3180909941,3.7664248115-.4249744554,1.2358950999-.7921949611,2.3369652797-1.1008730674,3.3024220898-.4444885885-.0390282663-.9368755039-.0579510621-1.4773578586-.0579510621h-.7533638073c-.2511212691,0-.5024396506.0189227958-.7531666948.0579510621-.2126843402-.7916036238-.4925840278-1.8150114959-.840093288-3.0710120663-.3477063726-1.2552121206-.7243882762-2.5876923239-1.1298485985-3.997834835-.4056574347-1.4093540613-.8211704922-2.8340828941-1.2457507227-4.2730038237-.4249744554-1.4385267048-.8211704922-2.7568148113-1.1877996606-3.9544700947-.3670233933-1.1972610585-.6762928369-2.2163324566-.9270198811-3.0564257446-.2513183816-.840093288-.4155130575-1.356527923-.4925840278-1.54969813.4247773429.0386340414.8402904004.0721431589,1.2457507227.1013158024.4056574347.0287784186.8012621341.0433647403,1.1877996606.0433647403.3861433015,0,.7772144145-.0145863218,1.1734104513-.0433647403.3956046994-.0291726435.7866758124-.062681761,1.1732133388-.1013158024.2897553105,1.2362893248.5984334168,2.5056935422.9270198811,3.809395327.3281922394,1.3037017848.6613122903,2.5884807738.999557265,3.8531542922.3376536373,1.2650677434.6662401017,2.4915014453.9849709432,3.6793011059.3185337291,1.1877996606.6128226261,2.2841391415.8834580283,3.2878357681h.0579510621c.4245802305-1.2165780792.8836551408-2.5348661857,1.3762391686-3.9540758697.4923869154-1.419603909.9703846215-2.8104293993,1.4339931183-4.1720822462.4634113843-1.361258622.8879916148-2.6164707425,1.2747262537-3.7660305866.3859461891-1.1487713943.6851628975-2.0614020661.8980443501-2.7374977906.2507270442.0386340414.4923869154.0721431589.7241911638.1013158024.2318042484.0287784186.4730698947.0433647403.7241911638.0433647403.2509241566,0,.4925840278-.0145863218.7243882762-.0433647403.2318042484-.0291726435.4730698947-.062681761.7241911638-.1013158024.0768738579.4249744554.2217515131.9950236785.4346329657,1.7089649946.2122901152.7147297659.4584835729,1.5067276146.7385803731,2.3755993211.2798996877.8692659315.579510621,1.7866273023.8982414625,2.7524783372.3185337291.965851035.6372645706,1.9218464472.9559954122,2.8679862365.3185337291.9465340143.6128226261,1.8445783644.8834580283,2.6941330502.2702411773.8499489108.4925840278,1.5934570953.6664372141,2.2305245534h.0579510621c.3861433015-1.2165780792.7967285476-2.5589139053,1.2311644009-4.0266132536.4346329657-1.4676993483.8546796097-2.8873032572,1.260139932-4.2588117269.4056574347-1.3711142448.7722866031-2.6263263653,1.1008730674-3.7660305866.3281922394-1.1393099964.5599964878-1.99911453.6954127452-2.578230926.4825312926.0965851035.8879916148.1446805428,1.2167751916.1446805428.2122901152,0,.4295080419-.0145863218.6518508924-.0433647403.2217515131-.0291726435.449022175-.062681761.680629311-.1013158024-.1352191449.3670233933-.3475092601.965851035-.6372645706,1.7960887002-.2897553105.8306318901-.6278031727,1.8106750219-1.0139464743,2.9405236204-.3865375264,1.1298485985-.801656359,2.3610129994-1.2457507227,3.6934932028-.4444885885,1.3328744283-.8885829522,2.6752102544-1.3326773158,4.0270074785-.4444885885,1.352191449-.8739966304,2.6752102544-1.289115463,3.9690564164-.4155130575,1.293846162-.7776086394,2.4528674039-1.0862867457,3.4762752761-.444685701-.0390282663-.9370726164-.0579510621-1.4775549711-.0579510621h-.7531666948c-.2513183816,0-.5024396506.0189227958-.7533638073.0579510621-.6183417748-2.3562823004-1.3180909941-4.6975840542-2.1002332199-7.025482161-.7821422259-2.3271096569-1.6078463046-4.6975840542-2.4769151236-7.1118174168h-.0579510621c-.3477063726.9847738308-.7437052969,2.0905747096-1.1877996606,3.3170084116Z"/>
        <path class="cls-1" d="M177.6193952565,36.9024756998c-.0390282663-1.2457507227-.0969793284-2.4958379194-.1738531863-3.7514442649.3281922394.0386340414.6853600099.0721431589,1.0718975364.1013158024.3861433015.0287784186.8205791548.0433647403,1.3035046723.0433647403.482728405,0,.9171642583-.0145863218,1.3037017848-.0433647403.3861433015-.0291726435.743311072-.062681761,1.0718975364-.1013158024-.0772680828,1.2556063455-.1352191449,2.5056935422-.1738531863,3.7514442649-.0388311539,1.2457507227-.0577539496,2.6704795555-.0577539496,4.2730038237v3.9402779978c0,1.6033127181.0189227958,3.0272531011.0577539496,4.2730038237.0386340414,1.2457507227.0965851035,2.4674537257.1738531863,3.6647147842-.3285864643-.0390282663-.6857542348-.0579510621-1.0718975364-.0579510621h-2.6072064571c-.3865375264,0-.7437052969.0189227958-1.0718975364.0579510621.0768738579-1.1972610585.13482492-2.4189640615.1738531863-3.6647147842.0384369289-1.2457507227.0577539496-2.6696911057.0577539496-4.2730038237v-3.9402779978c0-1.6025242682-.0193170207-3.0272531011-.0577539496-4.2730038237Z"/>
        <path class="cls-1" d="M192.2492788621,34.5706353439c-.8885829522,0-1.612774116.260582667-2.1727706038.7821422259-.5603907127.521165334-.840093288,1.1298485985-.840093288,1.8248671188,0,.7147297659.2172179266,1.2993653107.6518508924,1.7527239598.4344358533.4541470989.9798460194.8645352325,1.6368218356,1.2311644009.6561873664.3674176182,1.3614557344.7198546897,2.1148195417,1.0577054395.7531666948.3378507498,1.4578437255.7529695824,2.1148195417,1.2457507227.6563844789.4923869154,1.2021888699,1.0912145571,1.6368218356,1.7960887002.4344358533.705268368.6518508924,1.6076491921.6518508924,2.708719372,0,.965851035-.1839059216,1.8493090633-.5505350899,2.6507683099-.3670233933.8014592466-.8885829522,1.4874105939-1.5644815642,2.0566713671-.6760957245.5700492231-1.48228567,1.0044850764-2.4189640615,1.3037017848-.9368755039.2992167084-1.9843310957.449022175-3.1431552253.449022175-1.0429220053,0-1.9750668103-.1111714253-2.7956459651-.3331200508-.8211704922-.2215544007-1.4440458535-.4971176143-1.868626084-.8255069662.1927759821-.6757014996.3571677705-1.293846162.4925840278-1.8540397623.13482492-.5601936003.2507270442-1.1684826399.3475092601-1.8252613437h.5505350899c.0768738579.4249744554.2217515131.8255069662.4344358533,1.2023859823.2122901152.3764847912.4825312926.709604842.8113148694.9993601525.327995127.2897553105.7241911638.5168288599,1.1876025481.6808264234.4636084968.1643917884.9851680557.2463905701,1.5644815642.2463905701,1.1588241295,0,2.0135037393-.2897553105,2.5638417167-.8692659315.5505350899-.579510621.8257040787-1.2745291413.8257040787-2.0858440106,0-.7336525617-.2126843402-1.3324802034-.6374616831-1.7960887002-.4249744554-.4636084968-.9559954122-.8736024055-1.5932599828-1.2311644009-.6372645706-.3571677705-1.3326773158-.7048741431-2.0858440106-1.0431191178-.7531666948-.3374565249-1.44857944-.7482388834-2.0858440107-1.2311644009-.6374616831-.4825312926-1.1688768648-1.0766282353-1.5934570953-1.7815023784-.4249744554-.7048741431-.6372645706-1.608043417-.6372645706-2.708719372,0-1.0040908515.1783867728-1.8926738037.5359487682-2.6653546316.3571677705-.7722866031.8351654766-1.419603909,1.4339931183-1.9411634679.5984334168-.5215595589,1.289115463-.9169671459,2.0714548014-1.1877996606.7821422259-.2700440649,1.6078463046-.4056574347,2.4769151236-.4056574347,1.0429220053,0,1.9553555647.1261519719,2.737694903.3768790161.7821422259.2511212691,1.4529159141.5988276417,2.0133066268,1.0427248929-.1736560738.444685701-.3236586529.8739966304-.449022175,1.289115463-.125757747.4155130575-.2850246115.9418033153-.4779977061,1.5788707735h-.4344358533c-.6183417748-1.6604753303-1.7866273023-2.4911072204-3.5054479196-2.4911072204Z"/>
        <path class="cls-1" d="M206.7342848125,34.5706353439c-.8885829522,0-1.612774116.260582667-2.1727706038.7821422259-.5603907127.521165334-.840093288,1.1298485985-.840093288,1.8248671188,0,.7147297659.2172179266,1.2993653107.6518508924,1.7527239598.4344358533.4541470989.9798460194.8645352325,1.6368218356,1.2311644009.6561873664.3674176182,1.3614557344.7198546897,2.1148195417,1.0577054395.7531666948.3378507498,1.4578437255.7529695824,2.1148195417,1.2457507227.6563844789.4923869154,1.2021888699,1.0912145571,1.6368218356,1.7960887002.4344358533.705268368.6518508924,1.6076491921.6518508924,2.708719372,0,.965851035-.1839059216,1.8493090633-.5505350899,2.6507683099-.3670233933.8014592466-.8885829522,1.4874105939-1.5644815642,2.0566713671-.6760957245.5700492231-1.48228567,1.0044850764-2.4189640615,1.3037017848-.9368755039.2992167084-1.9843310957.449022175-3.1431552253.449022175-1.0429220053,0-1.9750668103-.1111714253-2.7956459651-.3331200508-.8211704922-.2215544007-1.4440458535-.4971176143-1.868626084-.8255069662.1927759821-.6757014996.3571677705-1.293846162.4925840278-1.8540397623.13482492-.5601936003.2507270442-1.1684826399.3475092601-1.8252613437h.5505350899c.0768738579.4249744554.2217515131.8255069662.4344358533,1.2023859823.2122901152.3764847912.4825312926.709604842.8113148694.9993601525.327995127.2897553105.7241911638.5168288599,1.1876025481.6808264234.4636084968.1643917884.9851680557.2463905701,1.5644815642.2463905701,1.1588241295,0,2.0135037393-.2897553105,2.5638417167-.8692659315.5505350899-.579510621.8257040787-1.2745291413.8257040787-2.0858440106,0-.7336525617-.2126843402-1.3324802034-.6374616831-1.7960887002-.4249744554-.4636084968-.9559954122-.8736024055-1.5932599828-1.2311644009-.6372645706-.3571677705-1.3326773158-.7048741431-2.0858440107-1.0431191178-.7531666948-.3374565249-1.44857944-.7482388834-2.0858440106-1.2311644009-.6374616831-.4825312926-1.1688768648-1.0766282353-1.5934570953-1.7815023784-.4249744554-.7048741431-.6372645706-1.608043417-.6372645706-2.708719372,0-1.0040908515.1783867728-1.8926738037.5359487682-2.6653546316.3571677705-.7722866031.8351654766-1.419603909,1.4339931183-1.9411634679.5984334168-.5215595589,1.289115463-.9169671459,2.0714548014-1.1877996606.7821422259-.2700440649,1.6078463046-.4056574347,2.4769151236-.4056574347,1.0429220053,0,1.9553555647.1261519719,2.737694903.3768790161.7821422259.2511212691,1.4529159141.5988276417,2.0133066268,1.0427248929-.1736560738.444685701-.3236586529.8739966304-.449022175,1.289115463-.125757747.4155130575-.2850246115.9418033153-.4779977061,1.5788707735h-.4344358533c-.6183417748-1.6604753303-1.7866273023-2.4911072204-3.5054479196-2.4911072204Z"/>
        <path class="cls-1" d="M235.1249832046,43.3918119801c-.7340467866-.0287784186-1.4678964607-.0433647403-2.2015490224-.0433647403-.734243899,0-1.4680935732.0098556228-2.2017461348.0287784186-.734243899.0197112456-1.4680935732.0484896642-2.2017461348.0871237056v1.6514081574c0,1.6033127181.0189227958,3.0272531011.0579510621,4.2730038237.0384369289,1.2457507227.096387991,2.4674537257.1736560738,3.6647147842-.3285864644-.0390282663-.6857542348-.0579510621-1.0718975364-.0579510621h-2.6072064571c-.3865375264,0-.7437052969.0189227958-1.0718975364.0579510621.0768738579-1.1972610585.13482492-2.4189640615.1738531863-3.6647147842.0384369289-1.2457507227.0579510621-2.6696911057.0579510621-4.2730038237v-3.9402779978c0-1.6025242682-.0195141332-3.0272531011-.0579510621-4.2730038237-.0390282663-1.2457507227-.0969793284-2.4958379194-.1738531863-3.7514442649.3281922394.0386340414.6853600099.0721431589,1.0718975364.1013158024.3861433015.0287784186.8205791548.0433647403,1.3037017848.0433647403.4825312926,0,.9169671459-.0145863218,1.3035046723-.0433647403.3861433015-.0291726435.743311072-.062681761,1.0718975364-.1013158024-.096782216,1.2556063455-.1592668645,2.4962321443-.1882423956,3.7226658463s-.0433647403,2.641306912-.0433647403,4.2442254052c.5018483133.0193170207,1.1054066539.0339033425,1.8104779095.0433647403.7048741431.0098556228,1.5788707735.0141920968,2.6217927788.0141920968,1.0431191178,0,1.8926738037-.004336474,2.5494525074-.0141920968.6563844789-.0094613979,1.2646735185-.0240477196,1.8250642312-.0433647403,0-1.6029184932-.0193170207-3.0177917032-.0579510621-4.2442254052-.0388311539-1.226433702-.096782216-2.4670595008-.1736560738-3.7226658463.3281922394.0386340414.6851628975.0721431589,1.0718975364.1013158024.3861433015.0287784186.8205791548.0433647403,1.3035046723.0433647403.4825312926,0,.9171642583-.0145863218,1.3037017848-.0433647403.3861433015-.0291726435.743311072-.062681761,1.0718975364-.1013158024-.0772680828,1.2556063455-.1352191449,2.5056935422-.1738531863,3.7514442649-.0388311539,1.2457507227-.0579510621,2.6704795555-.0579510621,4.2730038237v3.9402779978c0,1.6033127181.0191199082,3.0272531011.0579510621,4.2730038237.0386340414,1.2457507227.0965851035,2.4674537257.1738531863,3.6647147842-.3285864644-.0390282663-.6857542348-.0579510621-1.0718975364-.0579510621h-2.6072064571c-.3867346389,0-.7437052969.0189227958-1.0718975364.0579510621.0768738579-1.1972610585.13482492-2.4189640615.1736560738-3.6647147842.0386340414-1.2457507227.0579510621-2.6696911057.0579510621-4.2730038237v-1.6514081574c-.7340467866-.0189227958-1.4678964607-.0433647403-2.2017461348-.0725373839Z"/>
        <path class="cls-1" d="M245.2066939977,43.1458156349c0-1.4290653069.2653133659-2.771401133.7967285476-4.0270074785.5310209568-1.2552121206,1.2792598402-2.3562823004,2.2451108752-3.3028163147.9656539225-.9457455645,2.1339394499-1.6896479738,3.5054479196-2.2305245534,1.3711142448-.5404823547,2.8969617676-.8113148694,4.577345456-.8113148694,1.5449674311,0,2.9838883607.2128814526,4.3165656765.6374616831,1.3324802034.4249744554,2.4913043329,1.0624361385,3.4762752761,1.9119908244.9851680557.8503431357,1.7623824702,1.9265771461,2.3322345808,3.2302789309.5694578857,1.3037017848.8544824973,2.8246214962.8544824973,4.5627591342,0,1.4483823276-.2751689887,2.8005737765-.8255069662,4.0557858971-.5505350899,1.2556063455-1.31375452,2.3515516015-2.288672728,3.288229993-.9755095453.9370726164-2.1392614863,1.6656002542-3.4908615979,2.1871598131-1.352191449.5215595589-2.8392078179.7821422259-4.4614433318.7821422259-1.5260446353,0-2.9600377535-.1880452831-4.3021764673-.5649242992-1.3425329386-.3764847912-2.510818466-.9847738308-3.5052508072-1.8248671187-.9950236785-.840093288-1.7816994909-1.9119908244-2.3612101118-3.2156926091-.5793135085-1.3037017848-.869068819-2.8632555376-.869068819-4.6786612584ZM262.5598832971,42.5083539518c0-1.2552121206-.1547332781-2.3803300201-.4636084968-3.3749594737-.3090723312-.9946294536-.7385803731-1.8398476654-1.289115463-2.5348661857-.5503379775-.6954127452-1.2167751916-1.2315586258-1.9989174175-1.608043417s-1.6368218356-.5649242992-2.5638417167-.5649242992c-.9849709432,0-1.868626084.2369291723-2.6507683099.7099990669-.7823393383.4734641196-1.4440458535,1.1152622767-1.9845282082,1.9261829212-.5408765796.8113148694-.9514618257,1.7629738075-1.2311644009,2.8537941397-.2802939126,1.0912145571-.420046644,2.254966498-.420046644,3.4908615979,0,1.545361656.163800451,2.8490634407.4923869154,3.9111053543.3281922394,1.0624361385.7722866031,1.9167215233,1.3326773158,2.5636446043.5599964878.6473173059,1.2067224564,1.1152622767,1.9409663554,1.4050175872.7338496741.2897553105,1.5065305021.4348300782,2.317648259.4348300782.869068819,0,1.6993064842-.1833145842,2.4915014453-.5507322024.7916036238-.3666291684,1.4818914451-.9268227687,2.0712576889-1.680186576.5889720189-.7533638073,1.0620419136-1.7093592195,1.419603909-2.8679862365.3571677705-1.1586270171.5359487682-2.5297412618.5359487682-4.1137369592Z"/>
        <path class="cls-1" d="M275.9442132925,34.5706353439c-.8885829522,0-1.612774116.260582667-2.1727706038.7821422259-.5603907127.521165334-.840093288,1.1298485985-.840093288,1.8248671188,0,.7147297659.2172179266,1.2993653107.6518508924,1.7527239598.4344358533.4541470989.9798460194.8645352325,1.6368218356,1.2311644009.6561873664.3674176182,1.3614557344.7198546897,2.1148195417,1.0577054395.7531666948.3378507498,1.4578437255.7529695824,2.1148195417,1.2457507227.6563844789.4923869154,1.2021888699,1.0912145571,1.6368218356,1.7960887002.4344358533.705268368.6518508924,1.6076491921.6518508924,2.708719372,0,.965851035-.1839059216,1.8493090633-.5505350899,2.6507683099-.3670233933.8014592466-.8885829522,1.4874105939-1.5644815642,2.0566713671-.6760957245.5700492231-1.48228567,1.0044850764-2.4189640615,1.3037017848-.9368755039.2992167084-1.9843310957.449022175-3.1431552253.449022175-1.0429220053,0-1.9750668103-.1111714253-2.7956459651-.3331200508-.8211704922-.2215544007-1.4440458535-.4971176143-1.868626084-.8255069662.1927759821-.6757014996.3571677705-1.293846162.4925840278-1.8540397623.13482492-.5601936003.2507270442-1.1684826399.3475092601-1.8252613437h.5505350899c.0768738579.4249744554.2217515131.8255069662.4344358533,1.2023859823.2122901152.3764847912.4825312926.709604842.8113148694.9993601525.327995127.2897553105.7241911638.5168288599,1.1876025481.6808264234.4636084968.1643917884.9851680557.2463905701,1.5644815642.2463905701,1.1588241295,0,2.0135037393-.2897553105,2.5638417167-.8692659315.5505350899-.579510621.8257040787-1.2745291413.8257040787-2.0858440106,0-.7336525617-.2126843402-1.3324802034-.6374616831-1.7960887002-.4249744554-.4636084968-.9559954122-.8736024055-1.5932599828-1.2311644009-.6372645706-.3571677705-1.3326773158-.7048741431-2.0858440106-1.0431191178-.7531666948-.3374565249-1.44857944-.7482388834-2.0858440106-1.2311644009-.6374616831-.4825312926-1.1688768648-1.0766282353-1.5934570953-1.7815023784-.4249744554-.7048741431-.6372645706-1.608043417-.6372645706-2.708719372,0-1.0040908515.1783867728-1.8926738037.5359487682-2.6653546316.3571677705-.7722866031.8351654766-1.419603909,1.4339931183-1.9411634679.5984334168-.5215595589,1.289115463-.9169671459,2.0714548014-1.1877996606.7821422259-.2700440649,1.6078463046-.4056574347,2.4769151236-.4056574347,1.0429220053,0,1.9553555647.1261519719,2.737694903.3768790161.7821422259.2511212691,1.4529159141.5988276417,2.0133066268,1.0427248929-.1736560738.444685701-.3236586529.8739966304-.449022175,1.289115463-.125757747.4155130575-.2850246115.9418033153-.4779977061,1.5788707735h-.4344358533c-.6183417748-1.6604753303-1.7866273023-2.4911072204-3.5054479196-2.4911072204Z"/>
        <path class="cls-1" d="M285.127682623,41.1754795235c0-1.6025242682-.0195141332-3.0272531011-.0579510621-4.2730038237-.0390282663-1.2457507227-.0969793284-2.4958379194-.1738531863-3.7514442649.3281922394.0386340414.6853600099.0721431589,1.0718975364.1013158024.3861433015.0287784186.8207762673.0433647403,1.3037017848.0433647403.6757014996,0,1.3760420562-.0240477196,2.1002332199-.0725373839.7243882762-.0477012144,1.4341902307-.0721431589,2.1294058635-.0721431589,1.3711142448,0,2.4430117811.1013158024,3.2156926091.3039474073.7722866031.2030258298,1.3805756427.4975118392,1.8250642312.8838522532.6179475499.5022425382,1.0718975364,1.0624361385,1.3616528469,1.680186576.2897553105.6181446624.4346329657,1.3616528469.4346329657,2.2305245534,0,1.1010701799-.1839059216,2.0476041942-.5505350899,2.8392078179-.3670233933.7919978487-.8836551408,1.4341902307-1.5498952425,1.9265771461s-1.4535072514.8546796097-2.3610129994,1.0864838581c-.9080970853.2318042484-1.9025294265.3473121477-2.9840854732.3473121477h-1.4773578586c0,1.4487765525.0143892093,2.892822406.0433647403,4.3313491108.028975531,1.4389209297.0914601796,2.8632555376.188439508,4.2730038237-.3287835768-.0390282663-.6857542348-.0579510621-1.0718975364-.0579510621h-2.6074035695c-.3865375264,0-.7437052969.0189227958-1.0718975364.0579510621.0768738579-1.1972610585.13482492-2.4189640615.1738531863-3.6647147842.0384369289-1.2457507227.0579510621-2.6696911057.0579510621-4.2730038237v-3.9402779978ZM293.7608139761,38.7131507217c0-.7336525617-.0823930067-1.3514029991-.2461934577-1.8540397623-.1643917884-.5018483133-.3867346389-.902775049-.6664372141-1.2023859823-.2800968001-.2992167084-.6082890396-.516434635-.9849709432-.6516537799-.3766819036-.13482492-.7677530166-.2030258298-1.1732133388-.2030258298h-.9559954122c-.0969793284,0-.1839059216.0102498477-.2607797794.0291726435-.0195141332,1.3904312655-.0339033425,2.7572090362-.0435618528,4.0991506374-.0098556228,1.3427300511-.0143892093,2.6897965762-.0143892093,4.0415938003.4825312926,0,.9800431318-.0480954393,1.4919441804-.1450747677.5115068236-.0961908786.9800431318-.2940917845,1.4050175872-.5937027178.4245802305-.2992167084.7722866031-.7289218627,1.0429220053-1.289115463.2702411773-.5601936003.4056574347-1.3037017848.4056574347-2.2309187784Z"/>
        <path class="cls-1" d="M301.5538520412,36.9024756998c-.0390282663-1.2457507227-.0969793284-2.4958379194-.1738531863-3.7514442649.3281922394.0386340414.6853600099.0721431589,1.0718975364.1013158024.3861433015.0287784186.8205791548.0433647403,1.3035046723.0433647403.482728405,0,.9171642583-.0145863218,1.3037017848-.0433647403.3861433015-.0291726435.743311072-.062681761,1.0718975364-.1013158024-.0772680828,1.2556063455-.1352191449,2.5056935422-.1738531863,3.7514442649-.0388311539,1.2457507227-.0577539496,2.6704795555-.0577539496,4.2730038237v3.9402779978c0,1.6033127181.0189227958,3.0272531011.0577539496,4.2730038237.0386340414,1.2457507227.0965851035,2.4674537257.1738531863,3.6647147842-.3285864644-.0390282663-.6857542348-.0579510621-1.0718975364-.0579510621h-2.6072064571c-.3865375264,0-.7437052969.0189227958-1.0718975364.0579510621.0768738579-1.1972610585.13482492-2.4189640615.1738531863-3.6647147842.0384369289-1.2457507227.0577539496-2.6696911057.0577539496-4.2730038237v-3.9402779978c0-1.6025242682-.0193170207-3.0272531011-.0577539496-4.2730038237Z"/>
        <path class="cls-1" d="M314.5469138112,36.3375514005c-.0100527353-.4636084968-.0339033425-.8010650217-.0723402714-1.0139464743-.2897553105,0-.6473173059.0098556228-1.0720946488.0291726435-.4249744554.0193170207-.8789244418.0433647403-1.3614557344.0721431589-.4831226299.0291726435-.9755095453.0682009098-1.4775549711.1159021242-.5024396506.0484896642-.965851035.1017100274-1.3906283779.1596610895.0386340414-.2124872277.0725373839-.4245802305.1015129149-.6374616831.0289755311-.2124872277.0433647403-.4245802305.0433647403-.6374616831,0-.2120930028-.0143892093-.4245802305-.0433647403-.6374616831-.028975531-.2120930028-.0628788735-.4245802305-.1015129149-.6370674582.6563844789.0193170207,1.2502843092.0386340414,1.7816994909.0579510621.5310209568.0193170207,1.0718975364.0339033425,1.6224326263.0433647403.5503379775.0098556228,1.1487713943.0193170207,1.7960887002.0287784186.646923081.0102498477,1.4241374955.0145863218,2.3320374683.0145863218.9077028604,0,1.6849172749-.004336474,2.3322345808-.0145863218.6467259685-.0094613979,1.2406257988-.0189227958,1.7816994909-.0287784186.5404823547-.0094613979,1.0667726125-.0240477196,1.5788707735-.0433647403.5115068236-.0193170207,1.0667726125-.0386340414,1.6657973667-.0579510621-.0390282663.2124872277-.0725373839.4249744554-.1015129149.6370674582-.0289755311.2128814526-.0433647403.4253686803-.0433647403.6374616831,0,.2128814526.0143892093.4249744554.0433647403.6374616831.028975531.2128814526.0624846486.4249744554.1015129149.6374616831-.3867346389-.0579510621-.8211704922-.1111714253-1.3037017848-.1596610895-.4831226299-.0477012144-.961120336-.0867294807-1.4339931183-.1159021242-.4734641196-.0287784186-.9226834071-.0528261382-1.3472636376-.0721431589-.4249744554-.0193170207-.7821422259-.0291726435-1.0718975364-.0291726435-.0193170207.0969793284-.0339033425.2318042484-.0433647403.4056574347-.0100527353.1738531863-.0145863218.3764847912-.0145863218.6082890396v8.7782061208c0,1.6033127181.0191199082,3.0272531011.0579510621,4.2730038237.0386340414,1.2457507227.0965851035,2.4674537257.1738531863,3.6647147842-.3285864644-.0390282663-.6857542348-.0579510621-1.0718975364-.0579510621h-2.6072064571c-.3867346389,0-.7437052969.0189227958-1.0718975364.0579510621.0768738579-1.1972610585.13482492-2.4189640615.1736560738-3.6647147842.0386340414-1.2457507227.0579510621-2.6696911057.0579510621-4.2730038237v-7.2427000876c0-.5597993754-.0049278114-1.0718975364-.0143892093-1.5355060332Z"/>
        <path class="cls-1" d="M341.445668023,53.0534761292c-.4634113843-.0390282663-.9029721615-.0579510621-1.3180909941-.0579510621h-2.4625259143c-.4155130575,0-.8255069662.0189227958-1.2311644009.0579510621-.3090723312-.9461397894-.6278031727-1.9119908244-.9559954122-2.89715888-.3285864644-.9847738308-.6762928369-1.9699418865-1.0429220053-2.9547157172-.6183417748-.0193170207-1.2362893248-.0335091175-1.8540397623-.0437589653-.6183417748-.0094613979-1.2362893248-.0141920968-1.8542368747-.0141920968-.5024396506,0-1.0042879639.0047306989-1.5063333897.0141920968-.5024396506.0102498477-1.0044850764.0244419446-1.5065305021.0437589653-.3865375264.9847738308-.7437052969,1.9699418865-1.0718975364,2.9547157172-.3285864644.9851680557-.6278031727,1.9510190907-.8980443501,2.89715888-.2318042484-.0390282663-.4590749103-.0579510621-.6808264234-.0579510621h-1.3760420562c-.2318042484,0-.4829255175.0189227958-.7531666948.0579510621.2316071359-.5018483133.5404823547-1.1972610585.9270198811-2.0858440106.3861433015-.8881887273.8111177569-1.8926738037,1.2747262537-3.0130610042.4634113843-1.1195987508.9605289987-2.3219847331,1.4919441804-3.6067637221.5308238443-1.2839905392,1.0618448011-2.582961625,1.5932599828-3.8965190326.5310209568-1.3131631827,1.0523834032-2.6070093446,1.5644815642-3.8819327108.5115068236-1.2745291413.9800431318-2.4623288018,1.4050175872-3.5633989817.1927759821.0390282663.3766819036.0725373839.5503379775.1017100274.1738531863.0287784186.3571677705.0433647403.5505350899.0433647403.1927759821,0,.3766819036-.0145863218.5503379775-.0433647403.1738531863-.0291726435.3571677705-.062681761.5505350899-.1017100274.6179475499,1.6419467595,1.2792598402,3.3994014182,1.9845282082,5.2727582012.7046770306,1.873356783,1.4144789851,3.7132044484,2.129208751,5.5187545464.714335541,1.805944323,1.4095511737,3.5200342414,2.0858440107,5.1422697552.675898612,1.6222355139,1.2936490495,2.9937439835,1.8540397623,4.1137369592ZM331.1903011561,38.5972485975c-.5024396506,1.159021242-.9755095453,2.3030619373-1.419603909,3.4329105358-.4444885885,1.1298485985-.8789244418,2.2841391415-1.3037017848,3.4620831793h5.3017337322c-.4251715679-1.1779440378-.8452182118-2.3322345808-1.2603370444-3.4620831793-.4155130575-1.1298485985-.8544824973-2.2738892938-1.3180909941-3.4329105358Z"/>
        <path class="cls-1" d="M344.3718024341,36.9024756998c-.0390282663-1.2457507227-.0969793284-2.4958379194-.1738531863-3.7514442649.3281922394.0386340414.6853600099.0721431589,1.0718975364.1013158024.3861433015.0287784186.8205791548.0433647403,1.3037017848.0433647403.4825312926,0,.9169671459-.0145863218,1.3035046723-.0433647403.3861433015-.0291726435.743311072-.062681761,1.0718975364-.1013158024-.0772680828,1.2556063455-.1352191449,2.5056935422-.1736560738,3.7514442649-.0390282663,1.2457507227-.0579510621,2.6704795555-.0579510621,4.2730038237v3.9402779978c0,1.100675955.0045335865,2.1631120935.0143892093,3.1865199656.0094613979,1.0238020971.0240477196,1.9119908244.0435618528,2.6653546316,1.1008730674,0,2.2017461348-.0291726435,3.3024220898-.0871237056,1.1008730674-.0575568372,2.2114046452-.1541419407,3.3315947333-.2893610856-.0388311539.2124872277-.0678066849.4052632098-.0869265931.5791163961-.0193170207.1738531863-.0287784186.4155130575-.0287784186.7245853887s.0094613979.5503379775.0287784186.7241911638c.0191199082.1738531863.0480954393.3185337291.0869265931.4344358533-.5213624464-.0193170207-1.1637519409-.0339033425-1.9263800336-.0433647403-.7632194301-.0102498477-1.8106750219-.0145863218-3.1433523377-.0145863218h-4.5917346653c-.4346329657,0-.7632194301.004336474-.9849709432.0145863218-.2223428505.0094613979-.4105852461.0240477196-.5649242992.0433647403.0768738579-1.1972610585.13482492-2.4189640615.1738531863-3.6647147842.0384369289-1.2457507227.0579510621-2.6696911057.0579510621-4.2730038237v-3.9402779978c0-1.6025242682-.0195141332-3.0272531011-.0579510621-4.2730038237Z"/>
        <path class="cls-1" d="M358.9729076211,36.9024756998c-.0390282663-1.2457507227-.0969793284-2.4958379194-.1738531863-3.7514442649.3281922394.0386340414.6853600099.0721431589,1.0718975364.1013158024.3861433015.0287784186.8205791548.0433647403,1.3035046723.0433647403.482728405,0,.9171642583-.0145863218,1.3037017848-.0433647403.3861433015-.0291726435.743311072-.062681761,1.0718975364-.1013158024-.0772680828,1.2556063455-.1352191449,2.5056935422-.1738531863,3.7514442649-.0388311539,1.2457507227-.0577539496,2.6704795555-.0577539496,4.2730038237v3.9402779978c0,1.6033127181.0189227958,3.0272531011.0577539496,4.2730038237.0386340414,1.2457507227.0965851035,2.4674537257.1738531863,3.6647147842-.3285864643-.0390282663-.6857542348-.0579510621-1.0718975364-.0579510621h-2.6072064571c-.3865375264,0-.7437052969.0189227958-1.0718975364.0579510621.0768738579-1.1972610585.13482492-2.4189640615.1738531863-3.6647147842.0384369289-1.2457507227.0577539496-2.6696911057.0577539496-4.2730038237v-3.9402779978c0-1.6025242682-.0193170207-3.0272531011-.0577539496-4.2730038237Z"/>
        <path class="cls-1" d="M371.9659693911,36.3375514005c-.0100527353-.4636084968-.0339033425-.8010650217-.0723402714-1.0139464743-.2897553105,0-.6473173059.0098556228-1.0720946488.0291726435-.4249744554.0193170207-.8789244418.0433647403-1.3614557344.0721431589-.4831226299.0291726435-.9755095453.0682009098-1.4775549711.1159021242-.5024396506.0484896642-.965851035.1017100274-1.3906283779.1596610895.0386340414-.2124872277.0725373839-.4245802305.1015129149-.6374616831.028975531-.2124872277.0433647403-.4245802305.0433647403-.6374616831,0-.2120930028-.0143892093-.4245802305-.0433647403-.6374616831-.0289755311-.2120930028-.0628788735-.4245802305-.1015129149-.6370674582.6563844789.0193170207,1.2502843092.0386340414,1.7816994909.0579510621.5310209568.0193170207,1.0718975364.0339033425,1.6224326263.0433647403.5503379775.0098556228,1.1487713943.0193170207,1.7960887002.0287784186.646923081.0102498477,1.4241374955.0145863218,2.3320374683.0145863218.9077028604,0,1.6849172749-.004336474,2.3322345808-.0145863218.6467259685-.0094613979,1.2406257988-.0189227958,1.7816994909-.0287784186.5404823547-.0094613979,1.0667726125-.0240477196,1.5788707735-.0433647403.5115068236-.0193170207,1.0667726125-.0386340414,1.6657973667-.0579510621-.0390282663.2124872277-.0725373839.4249744554-.1015129149.6370674582-.028975531.2128814526-.0433647403.4253686803-.0433647403.6374616831,0,.2128814526.0143892093.4249744554.0433647403.6374616831.028975531.2128814526.0624846486.4249744554.1015129149.6374616831-.3867346389-.0579510621-.8211704922-.1111714253-1.3037017848-.1596610895-.4831226299-.0477012144-.961120336-.0867294807-1.4339931183-.1159021242-.4734641196-.0287784186-.9226834071-.0528261382-1.3472636376-.0721431589-.4249744554-.0193170207-.7821422259-.0291726435-1.0718975364-.0291726435-.0193170207.0969793284-.0339033425.2318042484-.0433647403.4056574347-.0100527353.1738531863-.0145863218.3764847912-.0145863218.6082890396v8.7782061208c0,1.6033127181.0191199082,3.0272531011.0579510621,4.2730038237.0386340414,1.2457507227.0965851035,2.4674537257.1738531863,3.6647147842-.3285864643-.0390282663-.6857542348-.0579510621-1.0718975364-.0579510621h-2.6072064571c-.3867346389,0-.7437052969.0189227958-1.0718975364.0579510621.0768738579-1.1972610585.13482492-2.4189640615.1736560738-3.6647147842.0386340414-1.2457507227.0579510621-2.6696911057.0579510621-4.2730038237v-7.2427000876c0-.5597993754-.0049278114-1.0718975364-.0143892093-1.5355060332Z"/>
        <path class="cls-1" d="M393.47626039,39.9443151226c.3861433015-.7044799182.7628252052-1.4432574037,1.1298485985-2.2159382317.3666291684-.7722866031.7243882762-1.5500923549,1.0718975364-2.3322345808.3477063726-.7821422259.6853600099-1.5303811093,1.0139464743-2.2451108752.2122901152.0386340414.4297051543.0721431589.6518508924.1013158024.2219486256.0287784186.449022175.0433647403.6808264234.0433647403s.4584835729-.0145863218.6808264234-.0433647403c.2217515131-.0291726435.4584835729-.062681761.7098019545-.1013158024-.3285864644.5408765796-.7387774855,1.2504814216-1.2311644009,2.129208751-.4925840278.8791215543-1.0190713981,1.8299920426-1.5788707735,2.8533999148-.5605878252,1.024196322-1.125315012,2.0716519138-1.6947728977,3.1435494502-.5700492231,1.0718975364-1.0864838581,2.061796291-1.5498952425,2.969302039,0,.4636084968-.0100527353.9319476925-.0289755311,1.4050175872-.0195141332.4734641196-.028975531.9516589381-.028975531,1.4341902307,0,.9847738308.0143892093,1.9604804886.0433647403,2.9259372986.028975531.965851035.1109743128,1.9797975093.2461934577,3.0418394228-.4054603222-.0390282663-.8160455683-.0579510621-1.2311644009-.0579510621h-2.4625259143c-.4155130575,0-.8255069662.0189227958-1.2311644009.0579510621.0384369289-.8881887273.1058493889-1.7960887002.2028287173-2.7233056937.096387991-.9268227687.1448776552-1.8540397623.1448776552-2.7808625309,0-.4442914761-.0051249239-.8933136511-.0145863218-1.34746075-.0098556228-.4533586491-.0244419446-.9023808241-.0433647403-1.3470665251-.4831226299-.9654568101-1.0383884188-2.0424792703-1.6657973667-3.229884706-.6280002852-1.1877996606-1.2362893248-2.3416959787-1.8252613437-3.4620831793-.5893662438-1.1199929757-1.1298485985-2.1339394499-1.6222355139-3.0418394228-.4925840278-.907505748-.8546796097-1.5642844518-1.0864838581-1.9699418865.4440943636.0386340414.8787273294.0721431589,1.3037017848.1013158024.4245802305.0287784186.8592131962.0433647403,1.3037017848.0433647403.4440943636,0,.8736024055-.0145863218,1.289115463-.0433647403.4151188326-.0291726435.8446268745-.062681761,1.2893125755-.1013158024.327995127.7147297659.6997492192,1.5063333897,1.1152622767,2.3755993211.4151188326.8688717066.8257040787,1.7192148423,1.2311644009,2.5490582825.4056574347.8306318901.7823393383,1.5839956974,1.1298485985,2.2596971969.3477063726.6764899494.6274089478,1.1783382627.8402904004,1.5067276146h.0577539496c.3861433015-.5601936003.7722866031-1.1925303595,1.1588241295-1.8977987275Z"/>
        <path class="cls-1" d="M148.5186977974,87.1369793666c-.3766819036.1837088091-.8306318901.3477063726-1.3616528469.4923869154-.5314151817.1450747677-1.125315012.2751689887-1.7816994909.3910711129-.6567787038.1159021242-1.3425329386.1738531863-2.0568684796.1738531863-1.5258475228,0-2.9359900339-.2172179266-4.2296390834-.6516537799-1.2942403869-.4344358533-2.4095026636-1.095945256-3.3459839426-1.9845282082-.9370726164-.8881887273-1.6709222905-1.9746725854-2.2017461348-3.2590573495-.5314151817-1.2843847641-.7967285476-2.7473534134-.7967285476-4.3889059479s.2653133659-3.1045211839.7967285476-4.3893001729c.5308238443-1.2839905392,1.2745291413-2.3704743973,2.2307216659-3.2590573495.9559954122-.8881887273,2.1002332199-1.5642844518,3.4329105358-2.0278929486s2.8001795516-.6954127452,4.4034922697-.6954127452c1.2747262537,0,2.4378868573.1304884459,3.4908615979.3910711129,1.0523834032.2609768919,1.9845282082.575174147,2.7956459651.9418033153-.1547332781.2704382898-.2802939126.6370674582-.3766819036,1.100675955-.096782216.4636084968-.1738531863.8503431357-.2318042484,1.159021242l-.1736560738.0579510621c-.1933673195-.2318042484-.4636084968-.4927811403-.8113148694-.7821422259-.3475092601-.2897553105-.7531666948-.5696549982-1.2165780792-.8404875129-.4636084968-.2700440649-.9851680557-.4967233894-1.5644815642-.6804321985s-1.2167751916-.2755632137-1.9119908244-.2755632137c-1.1399013337,0-2.1972125484.184103034-3.1723278688.5507322024-.9755095453.3670233933-1.8250642312.9319476925-2.549255395,1.6947728977-.7243882762.7632194301-1.2893125755,1.7286762402-1.6947728977,2.8967646551-.4056574347,1.1688768648-.608486152,2.5545774313-.608486152,4.1574959245,0,1.6033127181.2028287173,2.9886190597.608486152,4.1571016995.4054603222,1.1688768648.9703846215,2.1343336749,1.6947728977,2.89715888.7241911638.7628252052,1.5737458497,1.3277495044,2.549255395,1.6947728977.9751153204.3670233933,2.032426535.5503379775,3.1723278688.5503379775.6952156327,0,1.3370137899-.0871237056,1.9263800336-.2609768919.5889720189-.1738531863,1.1298485985-.3808212652,1.6224326263-.6228753613.4925840278-.2412656463.936481279-.5018483133,1.3326773158-.7821422259.3956046994-.2795054628.7287247503-.5258960329.9993601525-.7387774855l.1159021242.1159021242-.2607797794,1.7093592195c-.1736560738.1549303905-.449022175.3236586529-.8255069662.5069732371Z"/>
        <path class="cls-1" d="M152.0675104574,77.9101452957c0-1.6415525346.2653133659-3.1045211839.7967285476-4.3893001729.5308238443-1.2839905392,1.2745291413-2.3704743973,2.2307216659-3.2590573495.9559954122-.8881887273,2.1002332199-1.5642844518,3.4329105358-2.0278929486s2.7905210413-.6954127452,4.3745167386-.6954127452c1.6029184932,0,3.0708149539.2318042484,4.4034922697.6954127452,1.3324802034.4636084968,2.4769151236,1.1397042213,3.4329105358,2.0278929486.9559954122.8885829522,1.6993064842,1.9750668103,2.2307216659,3.2590573495.5310209568,1.284778989.7967285476,2.7477476383.7967285476,4.3893001729s-.2657075908,3.1045211839-.7967285476,4.3889059479c-.5314151817,1.2843847641-1.2747262537,2.3708686222-2.2307216659,3.2590573495-.9559954122.8885829522-2.1004303324,1.5500923549-3.4329105358,1.9845282082-1.3326773158.4344358533-2.8005737765.6516537799-4.4034922697.6516537799-1.5839956974,0-3.0418394228-.2172179266-4.3745167386-.6516537799s-2.4769151236-1.095945256-3.4329105358-1.9845282082c-.9561925246-.8881887273-1.6998978216-1.9746725854-2.2307216659-3.2590573495-.5314151817-1.2843847641-.7967285476-2.7473534134-.7967285476-4.3889059479ZM170.9270331464,77.9101452957c0-1.6029184932-.2026316049-2.9886190597-.6082890396-4.1574959245-.4056574347-1.168088415-.9705817339-2.133545225-1.6947728977-2.8967646551-.7241911638-.7628252052-1.574337187-1.3277495044-2.5494525074-1.6947728977-.9755095453-.3666291684-2.03282076-.5507322024-3.1721307563-.5507322024-1.1203872006,0-2.1682370173.184103034-3.1433523377.5507322024-.9755095453.3670233933-1.8250642312.9319476925-2.549255395,1.6947728977-.7243882762.7632194301-1.2893125755,1.7286762402-1.6947728977,2.8967646551-.4056574347,1.1688768648-.608486152,2.5545774313-.608486152,4.1574959245,0,1.6033127181.2028287173,2.9886190597.608486152,4.1571016995.4054603222,1.1688768648.9703846215,2.1343336749,1.6947728977,2.89715888.7241911638.7628252052,1.5737458497,1.3277495044,2.549255395,1.6947728977.9751153204.3670233933,2.0229651371.5503379775,3.1433523377.5503379775,1.1393099964,0,2.196621211-.1833145842,3.1721307563-.5503379775.9751153204-.3670233933,1.8252613437-.9319476925,2.5494525074-1.6947728977s1.289115463-1.7282820153,1.6947728977-2.89715888c.4056574347-1.1684826399.6082890396-2.5537889815.6082890396-4.1571016995Z"/>
        <path class="cls-1" d="M183.7174633115,75.5345459745c1.3616528469,2.5880865488,2.7857903423,5.2435855577,4.2732009362,7.9664970265.1927759821-.3666291684.4730698947-.8929194262.840093288-1.5788707735.3666291684-.6851628975.7918007362-1.4724300472,1.2747262537-2.3610129994.4825312926-.8881887273.999557265-1.8489148384,1.5498952425-2.8825725583.5503379775-1.0328692701,1.1103344653-2.0807190868,1.680186576-3.1431552253.5694578857-1.0620419136,1.134382185-2.1047668064,1.6947728977-3.1285689035.5599964878-1.0238020971,1.0815560467-1.9797975093,1.5644815642-2.8683804614h.3766819036c.2122901152,1.8544339872.4099939087,3.6457919884.5937027178,5.3740740036.1835116966,1.7286762402.3717540922,3.4285740617.5649242992,5.0989050149.1929730945,1.6707251781.3861433015,3.3221333354.579510621,4.9538302472.1927759821,1.6320911367.4056574347,3.2495959516.6372645706,4.8525144447-.2316071359-.0390282663-.4588777978-.0579510621-.6808264234-.0579510621h-1.3614557344c-.2223428505,0-.449022175.0189227958-.6808264234.0579510621-.2126843402-2.5683753032-.4251715678-5.0598767486-.6374616831-7.474504336-.2126843402-2.4138391376-.4734641196-4.8761679395-.7821422259-7.3873806304h-.0579510621c-1.3326773158,2.4335503832-2.641306912,4.8525144447-3.9254945636,7.2572864094-1.2845818765,2.4043777397-2.5058906546,4.9203211296-3.6647147842,7.546647495h-.260582667c-1.1588241295-2.4335503832-2.3710657347-4.8714372405-3.6359363656-7.3148432466-1.2650677434-2.4430117811-2.5348661857-4.9396381503-3.8095924394-7.4890906578h-.0577539496c-.1354162574,1.1980495083-.285221724,2.4966263692-.4492192875,3.8965190326-.1641946759,1.4006811132-.3140001426,2.7812567558-.449022175,4.1429096027-.1352191449,1.3616528469-.2511212691,2.6460376109-.3475092601,3.8531542922-.0969793284,1.2071166813-.1448776552,2.1970154359-.1448776552,2.969302039-.3092694437-.0390282663-.6473173059-.0579510621-1.0139464743-.0579510621-.3672205057,0-.705268368.0189227958-1.0139464743.0579510621.2507270442-1.5642844518.5115068236-3.2156926091.7821422259-4.9538302472.2702411773-1.7381376381.5310209568-3.4861308989.7821422259-5.2435855577.2507270442-1.7574546588.4825312926-3.4908615979.6954127452-5.2002208173.2122901152-1.7093592195.3956046994-3.3363254323.5503379775-4.8816870882h.4925840278c1.3324802034,2.7430169394,2.6797438409,5.4079773461,4.0411995754,7.9960638949Z"/>
        <path class="cls-1" d="M203.5765432654,75.4186438503c0-1.2749233662-.0244419446-2.5250105629-.0723402714-3.7518384898-.0484896642-1.2260394771-.1013158024-2.4769151236-.1592668645-3.7514442649.4634113843.0386340414.9315534676.0721431589,1.4050175872.1013158024.4730698947.0287784186.9414090904.0433647403,1.4050175872.0433647403.2318042484,0,.5115068236-.0094613979.840093288-.0287784186.3281922394-.0193170207.6613122903-.0335091175.999557265-.0437589653.3376536373-.0094613979.6613122903-.0236534947.9703846215-.0433647403.3088752187-.0189227958.5694578857-.0287784186.7823393383-.0287784186.289558198,0,.6467259685.0098556228,1.0718975364.0287784186.4245802305.0197112456.8736024055.0776623077,1.3470665251.1738531863.4730698947.0969793284.9414090904.2416598712,1.4050175872.4344358533.4636084968.1935644319.8836551408.4734641196,1.260139932.8404875129.3766819036.3670233933.6808264234.8255069662.9126306718,1.3758449437s.3477063726,1.2311644009.3477063726,2.0424792703c0,1.2745291413-.2753661012,2.3081868612-.8257040787,3.0997904849-.5505350899.7919978487-1.2266308144,1.4101425111-2.0278929485,1.8540397623-.801656359.444685701-1.6514081574.7439024094-2.5494525074.8980443501-.8980443501.1549303905-1.6947728977.2318042484-2.3899885304.2318042484-.4444885885,0-.8501460232-.004336474-1.2167751916-.0145863218-.3670233933-.0094613979-.7437052969-.0335091175-1.1298485985-.0721431589v1.5930628703c0,1.2749233662.0240477196,2.5305297117.0725373839,3.7664248115.0478983268,1.2358950999.1013158024,2.4528674039.1592668645,3.6501284624-.4444885885-.0390282663-.9175584832-.0579510621-1.419603909-.0579510621-.5024396506,0-.9755095453.0189227958-1.4194067965.0579510621.0579510621-1.1972610585.1107772003-2.4142333625.1592668645-3.6501284624.0478983268-1.2358950999.0723402714-2.4915014453.0723402714-3.7664248115v-4.9826086658ZM205.9521425866,77.5912173417c.6563844789.1549303905,1.3421387137.2318042484,2.0568684796.2318042484.5984334168,0,1.2167751916-.06741246,1.8542368747-.2026316049.6372645706-.13482492,1.2211116657-.3812154901,1.7525268474-.7387774855.5310209568-.3571677705.9656539225-.8495546859,1.3037017848-1.4775549711.3376536373-.6272118354.5069732371-1.4341902307.5069732371-2.4189640615,0-.8302376652-.1159021242-1.5063333897-.3475092601-2.0278929486-.2318042484-.5215595589-.5554629013-.9272169936-.9705817339-1.2169723041-.4155130575-.2893610856-.9224862946-.4872619915-1.5209197114-.5937027178-.5988276417-.1060465014-1.2747262537-.1592668645-2.0278929486-.1592668645h-2.6074035695v8.6039587096Z"/>
        <path class="cls-1" d="M234.0820611993,87.81780579c-.2706354023-.0390282663-.5262902578-.0579510621-.7675559041-.0579510621h-1.5355060332c-.2416598712,0-.4975118392.0189227958-.7677530166.0579510621-.1352191449-.4438972512-.3185337291-.9800431318-.5503379775-1.608043417-.2318042484-.6272118354-.4880504414-1.2839905392-.7677530166-1.9699418865-.2800968001-.6851628975-.5649242992-1.3805756427-.8546796097-2.0858440106-.289558198-.7044799182-.5603907127-1.3758449437-.8111177569-2.0133066268-.6183417748-.0189227958-1.2457507227-.0335091175-1.8830152933-.0433647403-.6374616831-.0094613979-1.2747262537-.0145863218-1.9119908244-.0145863218-.5990247541,0-1.1877996606.0051249239-1.7673102816.0145863218-.5793135085.0098556228-1.1686797523.0244419446-1.7671131691.0433647403-.6183417748,1.5063333897-1.1783382627,2.9405236204-1.6803836884,4.3021764673-.5024396506,1.3616528469-.8789244418,2.4867707464-1.129651486,3.3749594737-.3287835768-.0390282663-.6859513473-.0579510621-1.0718975364-.0579510621-.3867346389,0-.7439024094.0189227958-1.0718975364.0579510621,1.5642844518-3.3796901726,3.0897377497-6.7400633245,4.5771483435-10.0815136807,1.487016369-3.3410561312,2.9840854732-6.7400633245,4.4904188628-10.1978100298h.5505350899c.4634113843,1.1203872006.9654568101,2.3322345808,1.5063333897,3.6359363656.5404823547,1.3037017848,1.0910174446,2.6215956664,1.6514081574,3.9544700947.5597993754,1.3324802034,1.1197958632,2.6558932337,1.680186576,3.9690564164.5599964878,1.3135574076,1.0864838581,2.5348661857,1.5788707735,3.6647147842.4925840278,1.1298485985.936481279,2.1390643738,1.3326773158,3.0272531011.3956046994.8885829522.7192633524,1.5642844518.9703846215,2.0278929486ZM221.2482662939,78.8081896457c.5020454257,0,1.0236049846.0098556228,1.5644815642.0287784186.5404823547.0197112456,1.0618448011.0291726435,1.5644815642.0291726435.5402852422,0,1.0813589343-.0047306989,1.6222355139-.0145863218.5404823547-.0094613979,1.0813589343-.0240477196,1.6222355139-.0433647403l-3.2156926091-7.3586022118-3.157741547,7.3586022118Z"/>
        <path class="cls-1" d="M246.6262979067,80.2999367136c-2.5110155785-2.6941330502-5.0218340445-5.3740740036-7.5322582857-8.0390344104-.0195141332.5408765796-.0390282663,1.2650677434-.0579510621,2.1725734913-.0195141332.9082941978-.0289755311,2.1437950727-.0289755311,3.7080795245,0,.4056574347.0045335865.9082941978.0143892093,1.5067276146.0096585103.5988276417.0191199082,1.226433702.028975531,1.8828181808.0096585104.6567787038.0240477196,1.3234130304.0435618528,1.99911453.0189227958.6760957245.0384369289,1.3037017848.0579510621,1.8832124058.0189227958.5791163961.0384369289,1.0860896332.0579510621,1.5209197114.0189227958.4344358533.0384369289.7289218627.0579510621.8834580283-.3092694437-.0390282663-.6473173059-.0579510621-1.0139464743-.0579510621-.3867346389,0-.7437052969.0189227958-1.0718975364.0579510621.0384369289-.1927759821.0818016693-.5503379775.1302913335-1.0718975364.0478983268-.5215595589.0914601796-1.1444349202.1302913335-1.868626084.0386340414-.7241911638.0819987817-1.5110640886.1304884459-2.3610129994.0478983268-.8495546859.0869265931-1.6995035967.1159021242-2.5494525074.028975531-.8495546859.0528261382-1.680186576.0723402714-2.4915014453.0189227958-.8109206445.0289755311-1.5355060332.0289755311-2.1725734913,0-1.8540397623-.0049278114-3.4474968575-.0143892093-4.7799770609-.0100527353-1.3328744283-.0341004549-2.3275038819-.0725373839-2.9842825856h.4636084968c1.1777469253,1.2749233662,2.4378868573,2.641306912,3.7806169084,4.0995448624,1.3421387137,1.4582379504,2.6746189171,2.8967646551,3.997834835,4.3163685641,1.3226245806,1.419603909,2.5784280385,2.7623339601,3.7660305866,4.0270074785,1.1877996606,1.2650677434,2.2257938545,2.3420902036,3.1143768067,3.2302789309v-3.9402779978c0-2.0278929486-.0143892093-4.002171309-.0433647403-5.9244119811-.028975531-1.9214522222-.092051517-3.7321272442-.188439508-5.4316308408.3861433015.0965851035.714335541.1446805428.9849709432.1446805428.2318042484,0,.5404823547-.0480954393.9270198811-.1446805428-.0388311539.4249744554-.0821958942,1.0624361385-.1302913335,1.9119908244-.0484896642.8499489108-.096782216,1.7574546588-.1448776552,2.7233056937-.0484896642.965851035-.0918544046,1.9119908244-.1302913335,2.838813593-.0390282663.9272169936-.0579510621,1.6707251781-.0579510621,2.2309187784v1.7381376381c0,.6567787038.0045335865,1.3427300511.0143892093,2.0566713671.0096585103.7151239908.0191199082,1.4341902307.028975531,2.1583813945.0096585103.7241911638.0191199082,1.4006811132.028975531,2.0278929486.0096585104.6280002852.0145863218,1.1732133388.0145863218,1.6368218356v.9559954122h-.4056574347c-2.221260268-2.5683753032-4.5872010788-5.2002208173-7.0976253199-7.8943538676Z"/>
        <path class="cls-1" d="M264.790604963,79.6770613523c-.1933673195-.327995127-.4779977061-.8061899455-.8546796097-1.4337960058-.3764847912-.6276060603-.7921949611-1.3226245806-1.2457507227-2.0858440106-.4539499864-.7628252052-.9319476925-1.5646786767-1.4339931183-2.4047719647-.5024396506-.840093288-.9804373567-1.6411583096-1.4339931183-2.4043777397-.4539499864-.7628252052-.8645352325-1.4483823276-1.2311644009-2.0570655921-.3672205057-.6082890396-.6473173059-1.0667726125-.8402904004-1.3758449437.2702411773.0386340414.5359487682.0721431589.7967285476.1013158024.2607797794.0287784186.5260931454.0433647403.7967285476.0433647403.2702411773,0,.5359487682-.0145863218.7967285476-.0433647403.260582667-.0291726435.5258960329-.062681761.7965314352-.1013158024.8692659315,1.680186576,1.7527239598,3.3315947333,2.6507683099,4.9538302472.8982414625,1.6222355139,1.8491119509,3.3126719375,2.8535970272,5.0697323714.4440943636-.6954127452.9077028604-1.4578437255,1.3906283779-2.2884756155.4825312926-.8302376652.9654568101-1.6805808009,1.44857944-2.5494525074.4825312926-.8692659315.9459426769-1.742868337,1.3904312655-2.6219898913.4440943636-.8783331045.8592131962-1.7330127142,1.2457507227-2.5636446043.4825312926.0965851035.8592131962.1446805428,1.1298485985.1446805428.2702411773,0,.646923081-.0480954393,1.1298485985-.1446805428-.9270198811,1.4097482862-1.7576517712,2.6846716523-2.4915014453,3.8239816487-.7340467866,1.1397042213-1.3809698676,2.1725734913-1.9409663554,3.0997904849-.5603907127.9272169936-1.0527776281,1.7625795826-1.4773578586,2.5060877671-.4251715678.7435081845-.7921949611,1.41487321-1.1008730674,2.0133066268,0,.7147297659.0045335865,1.4775549711.0143892093,2.2884756155.0094613979.8113148694.0240477196,1.608043417.0435618528,2.3901856429.0189227958.7821422259.0433647403,1.5063333897.0723402714,2.1725734913.028975531.6666343266.0624846486,1.2023859823.1013158024,1.608043417-.4444885885-.0390282663-.9173613708-.0579510621-1.4194067965-.0579510621-.5024396506,0-.9755095453.0189227958-1.419603909.0579510621.1159021242-1.0040908515.1833145842-2.2206689306.2028287173-3.6501284624.0189227958-1.4290653069.028975531-2.9259372986.028975531-4.4906159753Z"/>
      </g>
    </g>
  </g>
</svg>